<svg id="Layer_1" data-name="Layer 1" xmlns="http://www.w3.org/2000/svg" viewBox="0 0 279.26 420.43"><defs><style>.cls-1,.cls-8{fill:none;stroke-miterlimit:10;}.cls-1{stroke:#c81929;stroke-width:12px;}.cls-2,.cls-3,.cls-7{isolation:isolate;}.cls-2{font-size:150px;font-family:LilyScriptOne-Regular, Lily Script One;}.cls-2,.cls-3{fill:#84c441;}.cls-3{font-size:50px;font-family:ZillaSlab-Italic, Zilla Slab;font-style:italic;}.cls-4{letter-spacing:0em;}.cls-5{letter-spacing:-0.01em;}.cls-6{letter-spacing:-0.01em;}.cls-7{font-size:80px;fill:#d02027;font-family:BernardMT-Condensed, Bernard MT Condensed;}.cls-8{stroke:#d02027;stroke-width:5px;}</style></defs><polyline class="cls-1" points="268.44 102.1 268.44 6 10.04 6 10.04 255.9 28.04 255.9"/><path class="cls-1" d="M511,224" transform="translate(-242.56 -135.6)"/><path class="cls-1" d="M511,252.1" transform="translate(-242.56 -135.6)"/><path class="cls-1" d="M511,288.8" transform="translate(-242.56 -135.6)"/><path class="cls-1" d="M511,260.8" transform="translate(-242.56 -135.6)"/><path class="cls-1" d="M511,293.2" transform="translate(-242.56 -135.6)"/><path class="cls-1" d="M387.9,391.5" transform="translate(-242.56 -135.6)"/><path class="cls-1" d="M274.4,391.5h24.8" transform="translate(-242.56 -135.6)"/><line class="cls-1" x1="28.04" y1="255.9" x2="31.84" y2="255.9"/><text class="cls-2" transform="translate(23.69 139.73)">F</text><text class="cls-2" transform="translate(156.37 240.64)">E</text><text class="cls-3" transform="translate(5.46 320.46) scale(0.77 1)">f<tspan class="cls-4" x="15.3" y="0">r</tspan><tspan x="32.25" y="0">ontendbilgi</tspan><tspan class="cls-5" x="261.35" y="0">.</tspan><tspan x="271.3" y="0">co</tspan><tspan class="cls-6" x="317.3" y="0">m</tspan></text><text class="cls-7" transform="translate(79.98 402.38)">&lt;/&gt;</text><line class="cls-8" x1="198.94" y1="43.1" x2="85.54" y2="209.9"/></svg>